<?xml version="1.0" encoding="UTF-8"?>
<!DOCTYPE svg PUBLIC "-//W3C//DTD SVG 1.1//EN" "http://www.w3.org/Graphics/SVG/1.1/DTD/svg11.dtd">
<!-- Creator: CorelDRAW X7 -->
<svg xmlns="http://www.w3.org/2000/svg" xml:space="preserve" width="56.1083mm" height="53.7569mm" version="1.1" style="shape-rendering:geometricPrecision; text-rendering:geometricPrecision; image-rendering:optimizeQuality; fill-rule:evenodd; clip-rule:evenodd"
viewBox="0 0 1990 1906"
 xmlns:xlink="http://www.w3.org/1999/xlink">
 <defs>
  <style type="text/css">
   <![CDATA[
    .fil1 {fill:#000066}
    .fil0 {fill:#003399;fill-rule:nonzero}
   ]]>
  </style>
    <clipPath id="id0">
     <path d="M0 0l1990 0 0 1906 -1990 0 0 -1906z"/>
    </clipPath>
 </defs>
 <g id="Layer_x0020_1">
  <metadata id="CorelCorpID_0Corel-Layer"/>
  <g id="_367755752">
   <g style="clip-path:url(#id0)">
    <image x="0" y="0" width="1990" height="1906" xlink:href="icon_Images\icon_ImgID1.png"/>
   </g>
   <path class="fil0" d="M544 1571l1254 -851c17,-11 26,-27 24,-45 -3,-17 -15,-31 -34,-38l-1425 -515c-21,-8 -44,-5 -64,6 -19,11 -29,29 -27,47l171 1367c3,18 17,32 38,39 22,6 45,2 63,-10z"/>
   <path class="fil1" d="M484 1327c224,-181 448,-361 673,-541 12,-9 41,-39 -9,-61 -30,-14 -409,-187 -781,-357l652 406 -535 553z"/>
   <path class="fil1" d="M1104 640c-161,-87 -531,-266 -717,-351 0,0 -35,-24 -29,25 6,49 133,1080 133,1080 0,0 -1,25 17,10 105,-97 584,-453 627,-515 20,-22 11,-25 -10,-14l-577 444c-12,1 -32,5 -35,-1 -5,-6 5,-25 10,-35l218 -464c4,-9 9,-15 8,-22 -1,-8 -8,-15 -14,-22l-323 -378c-21,-24 -28,-53 16,-39 146,66 545,246 670,295 33,14 22,-4 6,-13z"/>
  </g>
 </g>
</svg>
